# xmcd CD database file
#
# Track frame offsets:
#	150
#	15692
#	39981
#	65187
#	99169
#
# Disc length: 1551 seconds
#
# Revision: 5
# Processed by: cddbd v1.5.2PL0 Copyright (c) Steve Scherf et al.
# Submitted via: CDex 1.81
#
DISCID=37060d05
DTITLE=Snap - The Power of Bhangra 2003 [CDM)
DYEAR=2003
DGENRE=Pop
TTITLE0=Snap! Vs Motivo - The Power Of Bhangra 2003 (Radio)
TTITLE1=Snap! Vs Motivo - The Power Of Bhangra 2003 (Extended)
TTITLE2=Snap! - The Power 2003 (Club Extended)
TTITLE3=Snap! - The Power 2003 (Clubstar Remix)
TTITLE4=Snap! - The Power (Original Radio '90)
EXTD=http://fedion.jouwpagina.nl YEAR: 2003
EXTT0=
EXTT1=
EXTT2=
EXTT3=
EXTT4=
PLAYORDER=
